<?xml version="1.0" encoding="utf-8"?>
<!-- Generator: Adobe Illustrator 16.0.0, SVG Export Plug-In . SVG Version: 6.00 Build 0)  -->
<!DOCTYPE svg PUBLIC "-//W3C//DTD SVG 1.1//EN" "http://www.w3.org/Graphics/SVG/1.1/DTD/svg11.dtd">
<svg version="1.1" id="Layer_1" xmlns="http://www.w3.org/2000/svg" xmlns:xlink="http://www.w3.org/1999/xlink" x="0px" y="0px"
	 width="100px" height="100px" viewBox="0 0 100 100" enable-background="new 0 0 100 100" xml:space="preserve">
<g>
	<g>
		<path fill="#666666" d="M49.999,0C22.385,0,0,22.386,0,50.001C0,77.614,22.385,100,49.999,100C77.614,100,100,77.614,100,50.001
			C100,22.386,77.614,0,49.999,0z M49.999,98.6C23.202,98.6,1.4,76.799,1.4,50.001C1.4,23.202,23.202,1.4,49.999,1.4
			C76.798,1.4,98.6,23.202,98.6,50.001C98.6,76.799,76.798,98.6,49.999,98.6z M69.449,20.613h-38.69
			c-1.965,0-3.563,1.599-3.563,3.564v51.647c0,1.965,1.598,3.562,3.563,3.562h38.69c1.965,0,3.562-1.599,3.562-3.562V24.177
			C73.014,22.212,71.414,20.613,69.449,20.613z M71.514,75.824c0,1.135-0.93,2.062-2.063,2.062H30.76
			c-1.135,0-2.062-0.929-2.062-2.062V24.177c0-1.136,0.928-2.062,2.062-2.062h38.69c1.135,0,2.063,0.928,2.063,2.062V75.824z
			 M51.311,28.064H34.148v17.921h17.163V28.064L51.311,28.064z M34.148,52.75h31.913v-1.5H34.148V52.75z M34.148,58.751h31.913v-1.5
			H34.148V58.751z M34.148,64.751h31.913v-1.5H34.148V64.751z M34.148,70.752h31.913v-1.5H34.148V70.752z"/>
	</g>
</g>
</svg>
