<?xml version="1.0" encoding="utf-8"?>
<!-- Generator: Adobe Illustrator 16.0.0, SVG Export Plug-In . SVG Version: 6.00 Build 0)  -->
<!DOCTYPE svg PUBLIC "-//W3C//DTD SVG 1.1//EN" "http://www.w3.org/Graphics/SVG/1.1/DTD/svg11.dtd">
<svg version="1.1" id="Layer_1" xmlns="http://www.w3.org/2000/svg" xmlns:xlink="http://www.w3.org/1999/xlink" x="0px" y="0px"
	 width="100px" height="100px" viewBox="0 0 100 100" enable-background="new 0 0 100 100" xml:space="preserve">
<g>
	<g>
		<path fill="#FFFFFF" d="M49.999,0C22.385,0,0,22.386,0,50.001C0,77.614,22.385,100,49.999,100C77.614,100,100,77.614,100,50.001
			C100,22.386,77.614,0,49.999,0z M49.999,98.6C23.202,98.6,1.4,76.799,1.4,50.001C1.4,23.202,23.202,1.4,49.999,1.4
			C76.798,1.4,98.6,23.202,98.6,50.001C98.6,76.799,76.798,98.6,49.999,98.6z M42.461,21.268c-0.972-0.972-1.768-0.643-1.768,0.732
			v55.999c0,1.375,0.796,1.704,1.768,0.732l26.963-26.965c0.972-0.972,0.972-2.563,0-3.535L42.461,21.268z"/>
	</g>
</g>
</svg>
